<svg width="27" height="18" viewBox="0 0 27 18" fill="none" xmlns="http://www.w3.org/2000/svg">
<path d="M10.875 8.15625C12.8906 8.71875 13.875 10.2656 13.875 12.3281C13.875 15.7031 11.0625 17.1562 8.01562 17.1562H0V0.5625H7.82812C10.6406 0.5625 13.125 1.35938 13.125 4.6875C13.125 6.32812 12.3281 7.40625 10.875 8.15625ZM3.60938 3.375V7.26562H7.3125C8.625 7.26562 9.5625 6.70312 9.5625 5.29688C9.5625 3.75 8.39062 3.375 7.07812 3.375H3.60938ZM7.54688 14.3438C9 14.3438 10.2188 13.8281 10.2188 12.1406C10.2188 10.4531 9.23438 9.75 7.59375 9.75H3.60938V14.3438H7.54688ZM24.3281 3.04688H17.625V1.40625H24.3281V3.04688ZM27 11.3438C27 11.5312 26.9531 11.7656 26.9531 11.9531H18.2812C18.2812 13.875 19.3125 15 21.2344 15C22.2188 15 23.5312 14.4844 23.8594 13.4531H26.7656C25.875 16.1719 24 17.4844 21.1406 17.4844C17.3438 17.4844 14.9531 14.9062 14.9531 11.1562C14.9531 7.54688 17.4375 4.78125 21.1406 4.78125C24.8906 4.78125 27 7.78125 27 11.3438ZM18.2812 9.84375H23.6719C23.5312 8.25 22.6875 7.3125 21 7.3125C19.4531 7.3125 18.375 8.29688 18.2812 9.84375Z" fill="#B2B2B2"/>
</svg>
