<svg xmlns="http://www.w3.org/2000/svg" version="1.1" xmlns:xlink="http://www.w3.org/1999/xlink" xmlns:svgjs="http://svgjs.dev/svgjs" id="BgenPttrnSvgRootPreview" width="100%" height="100%"><defs><pattern x="0" y="0" width="1" height="1" patternUnits="userSpaceOnUse" id="BgenPttrnLayer1"><g id="PatternRootContent1"><g id="BgenPttrnLayer1background"><rect width="1" height="1" id="BgenPttrnBackground1" class="color_1 fill_color_1" fill="#71c777"></rect></g></g></pattern><pattern x="0" y="0" width="160" height="160" patternUnits="userSpaceOnUse" id="BgenPttrnLayer2" patternTransform="matrix(0.5,0,0,0.5,0,0)"><g id="PatternRootContent2"><g id="BgenPttrnLayer2Element2"><use xlink:href="#BgenPttrnElement2" x="106.38600158691406" y="-93.61399841308594" transform="translate(160, -40) scale(1) translate(-160, 40) rotate(45, 160, -40)"></use><use xlink:href="#BgenPttrnElement2" x="-53.61399841308594" y="-93.61399841308594" transform="translate(0, -40) scale(1) translate(0, 40) rotate(45, 0, -40)"></use><use xlink:href="#BgenPttrnElement2" x="26.386001586914062" y="-13.613998413085938" transform="translate(80, 40) scale(1) translate(-80, -40) rotate(45, 80, 40)"></use><use xlink:href="#BgenPttrnElement2" x="-133.61399841308594" y="-13.613998413085938" transform="translate(-80, 40) scale(1) translate(80, -40) rotate(45, -80, 40)"></use><use xlink:href="#BgenPttrnElement2" x="186.38600158691406" y="-13.613998413085938" transform="translate(240, 40) scale(1) translate(-240, -40) rotate(45, 240, 40)"></use><use xlink:href="#BgenPttrnElement2" x="106.38600158691406" y="66.38600158691406" transform="translate(160, 120) scale(1) translate(-160, -120) rotate(45, 160, 120)"></use><use xlink:href="#BgenPttrnElement2" x="-53.61399841308594" y="66.38600158691406" transform="translate(0, 120) scale(1) translate(0, -120) rotate(45, 0, 120)"></use><use xlink:href="#BgenPttrnElement2" x="26.386001586914062" y="146.38600158691406" transform="translate(80, 200) scale(1) translate(-80, -200) rotate(45, 80, 200)"></use><use xlink:href="#BgenPttrnElement2" x="26.386001586914062" y="146.38600158691406" transform="translate(80, 200) scale(1) translate(-80, -200) rotate(45, 80, 200)"></use></g></g></pattern><symbol id="BgenPttrnElement2"><g class="color_3 fill_color_3" fill="#97f09b"><path d="M73.614,27.012001037597656c-0.945,3.111,-2.597,5.908,-4.771,8.217c-2.839,-3.023,-6.573,-5.202,-10.78,-6.109c-1.434,-0.314,-2.923,-0.477,-4.449,-0.477s-3.015,0.163,-4.445,0.477c-4.207,0.907,-7.941,3.086,-10.78,6.109C36.215,32.92,34.559,30.123,33.614,27.012001037597656c4.064,-0.882,7.853,-2.969,10.788,-6.105c1.083,-1.15,2.049,-2.442,2.873,-3.868c0.811,-1.401,1.438,-2.86,1.894,-4.345c1.242,-4.048,1.192,-8.304,-0.008,-12.218C50.595,0.163,52.084,0,53.614,1.3073986337985843e-11s3.023,0.163,4.457,0.477c-1.2,3.914,-1.25,8.171,-0.008,12.218c0.456,1.484,1.083,2.944,1.894,4.345c0.824,1.426,1.79,2.718,2.873,3.868C65.765,24.043,69.554,26.13,73.614,27.012001037597656Z" transform="matrix(1,0,0,1,0,0)"></path><path d="M80.216,73.61399841308594c-3.111,-0.945,-5.908,-2.597,-8.217,-4.771c3.023,-2.839,5.202,-6.573,6.109,-10.78c0.314,-1.434,0.477,-2.923,0.477,-4.449s-0.163,-3.015,-0.477,-4.445c-0.907,-4.207,-3.086,-7.941,-6.109,-10.78C74.308,36.215,77.105,34.559,80.216,33.61399841308594c0.882,4.064,2.969,7.853,6.105,10.788c1.15,1.083,2.442,2.049,3.868,2.873c1.401,0.811,2.86,1.438,4.345,1.894c4.048,1.242,8.304,1.192,12.218,-0.008C107.065,50.595,107.228,52.084,107.228,53.61399841308594s-0.163,3.023,-0.477,4.457c-3.914,-1.2,-8.171,-1.25,-12.218,-0.008c-1.484,0.456,-2.944,1.083,-4.345,1.894c-1.426,0.824,-2.718,1.79,-3.868,2.873C83.185,65.765,81.098,69.554,80.216,73.61399841308594Z" transform="matrix(1,0,0,1,0,0)"></path><path d="M33.614,80.21599578857422c0.945,-3.111,2.597,-5.908,4.771,-8.217c2.839,3.023,6.573,5.202,10.78,6.109c1.434,0.314,2.923,0.477,4.449,0.477s3.015,-0.163,4.445,-0.477c4.207,-0.907,7.941,-3.086,10.78,-6.109C71.013,74.308,72.669,77.105,73.614,80.21599578857422c-4.064,0.882,-7.853,2.969,-10.788,6.105c-1.083,1.15,-2.049,2.442,-2.873,3.868c-0.811,1.401,-1.438,2.86,-1.894,4.345c-1.242,4.048,-1.192,8.304,0.008,12.218C56.633,107.065,55.144,107.228,53.614,107.22799682617188s-3.023,-0.163,-4.457,-0.477c1.2,-3.914,1.25,-8.171,0.008,-12.218c-0.456,-1.484,-1.083,-2.944,-1.894,-4.345c-0.824,-1.426,-1.79,-2.718,-2.873,-3.868C41.463,83.185,37.674,81.098,33.614,80.21599578857422Z" transform="matrix(1,0,0,1,0,0)"></path><path d="M27.012,33.61399841308594c3.111,0.945,5.908,2.597,8.217,4.771c-3.023,2.839,-5.202,6.573,-6.109,10.78c-0.314,1.434,-0.477,2.923,-0.477,4.449s0.163,3.015,0.477,4.445c0.907,4.207,3.086,7.941,6.109,10.78C32.92,71.013,30.123,72.669,27.012,73.61399841308594c-0.882,-4.064,-2.969,-7.853,-6.105,-10.788c-1.15,-1.083,-2.442,-2.049,-3.868,-2.873c-1.401,-0.811,-2.86,-1.438,-4.345,-1.894c-4.048,-1.242,-8.304,-1.192,-12.218,0.008C0.163,56.633,0,55.144,0,53.61399841308594s0.163,-3.023,0.477,-4.457c3.914,1.2,8.171,1.25,12.218,0.008c1.484,-0.456,2.944,-1.083,4.345,-1.894c1.426,-0.824,2.718,-1.79,3.868,-2.873C24.043,41.463,26.13,37.674,27.012,33.61399841308594Z" transform="matrix(1,0,0,1,0,0)"></path></g></symbol></defs><rect width="100%" height="100%" id="BgenPttrnRctLayer1" fill="url(&quot;#BgenPttrnLayer1&quot;)"></rect><rect width="100%" height="100%" id="BgenPttrnRctLayer2" fill="url(&quot;#BgenPttrnLayer2&quot;)"></rect></svg>